<svg xmlns="http://www.w3.org/2000/svg" viewbox="0 0 24 24">

  <symbol id="mark-7">
    <path d="M12 2c5.514 0 10 4.486 10 10s-4.486 10-10 10-10-4.486-10-10 4.486-10 10-10zm0-2c-6.627 0-12 5.373-12 12s5.373 12 12 12 12-5.373 12-12-5.373-12-12-12zm6 16.538l-4.592-4.548 4.546-4.587-1.416-1.403-4.545 4.589-4.588-4.543-1.405 1.405 4.593 4.552-4.547 4.592 1.405 1.405 4.555-4.596 4.591 4.55 1.403-1.416z"/>
  </symbol>

  <symbol id="upload-18">
    <path d="M19.479 10.092c-.212-3.951-3.473-7.092-7.479-7.092-4.005 0-7.267 3.141-7.479 7.092-2.57.463-4.521 2.706-4.521 5.408 0 3.037 2.463 5.5 5.5 5.5h13c3.037 0 5.5-2.463 5.5-5.5 0-2.702-1.951-4.945-4.521-5.408zm-7.479-1.092l4 4h-3v4h-2v-4h-3l4-4z"/>
  </symbol>

  <symbol id="file-5">
    <path d="M11.362 2c4.156 0 2.638 6 2.638 6s6-1.65 6 2.457v11.543h-16v-20h7.362zm.827-2h-10.189v24h20v-14.386c0-2.391-6.648-9.614-9.811-9.614z"/>
  </symbol>

  <symbol id="file-22">
    <path d="M11.362 2c4.156 0 2.638 6 2.638 6s6-1.65 6 2.457v11.543h-16v-20h7.362zm.827-2h-10.189v24h20v-14.386c0-2.391-6.648-9.614-9.811-9.614zm4.811 13h-10v-1h10v1zm0 2h-10v1h10v-1zm0 3h-10v1h10v-1z"/>
  </symbol>

  <symbol id="file-26">
    <path d="M11.362 2c4.156 0 2.638 6 2.638 6s6-1.65 6 2.457v11.543h-16v-20h7.362zm.827-2h-10.189v24h20v-14.386c0-2.391-6.648-9.614-9.811-9.614zm-5.189 12.5c0-.828.672-1.5 1.501-1.5.827 0 1.499.672 1.499 1.5s-.672 1.5-1.499 1.5c-.829 0-1.501-.672-1.501-1.5zm6.5.5l-2.093 2.968-1.31-.968-3.097 4h10l-3.5-6z"/>
  </symbol>

  <symbol id="file-30">
    <path d="M11.362 2c4.156 0 2.638 6 2.638 6s6-1.65 6 2.457v11.543h-16v-20h7.362zm.827-2h-10.189v24h20v-14.386c0-2.391-6.648-9.614-9.811-9.614zm3.81 11l-5.999 1.195v4.344c-1.128-.225-2.275.779-1.941 1.723.44 1.248 2.939.871 2.94-.811v-3.469l4.001-.955v2.912c-1.129-.223-2.259.779-1.926 1.725.44 1.246 2.922.871 2.925-.812v-5.852z"/>
  </symbol>

  <symbol id="file-28">
    <path d="M11.362 2c4.156 0 2.638 6 2.638 6s6-1.65 6 2.457v11.543h-16v-20h7.362zm.827-2h-10.189v24h20v-14.386c0-2.391-6.648-9.614-9.811-9.614zm-4.189 17h-1v-1h1v1zm0-2h-1v-1h1v1zm0 4h-1v-1h1v1zm0-6h-1v-1h1v1zm9 4h-1v-1h1v1zm0-2h-1v-1h1v1zm0 4h-1v-1h1v1zm0-6h-1v-1h1v1zm-2-1h-6v3h6v-3zm0 4h-6v3h6v-3z"/>
  </symbol>

  <symbol id="file-24">
    <path d="M11.362 2c4.156 0 2.638 6 2.638 6s6-1.65 6 2.457v11.543h-16v-20h7.362zm.827-2h-10.189v24h20v-14.386c0-2.391-6.648-9.614-9.811-9.614zm4.811 13h-3v-1h3v1zm0 2h-3v1h3v-1zm0 3h-10v1h10v-1zm-5-6h-5v4h5v-4z"/>
  </symbol>

  <symbol id="file-34">
    <path d="M11.363 2c4.155 0 2.637 6 2.637 6s6-1.65 6 2.457v11.543h-16v-20h7.363zm.826-2h-10.189v24h20v-14.386c0-2.391-6.648-9.614-9.811-9.614zm4.811 13h-2.628v3.686h.907v-1.472h1.49v-.732h-1.49v-.698h1.721v-.784zm-4.9 0h-1.599v3.686h1.599c.537 0 .961-.181 1.262-.535.555-.658.587-2.034-.062-2.692-.298-.3-.712-.459-1.2-.459zm-.692.783h.496c.473 0 .802.173.915.644.064.267.077.679-.021.948-.128.351-.381.528-.754.528h-.637v-2.12zm-2.74-.783h-1.668v3.686h.907v-1.277h.761c.619 0 1.064-.277 1.224-.763.095-.291.095-.597 0-.885-.16-.484-.606-.761-1.224-.761zm-.761.732h.546c.235 0 .467.028.576.228.067.123.067.366 0 .489-.109.199-.341.227-.576.227h-.546v-.944z"/>
  </symbol>

  <symbol id="code-11">
    <path d="M13 12v1.649l3.229 1.351-3.229 1.347v1.653l5-2.201v-1.599l-5-2.2zm-7 2.201v1.599l5 2.2v-1.653l-3.229-1.347 3.229-1.351v-1.649l-5 2.201zm5.362-12.201c4.156 0 2.638 6 2.638 6s6-1.65 6 2.457v11.543h-16v-20h7.362zm.827-2h-10.189v24h20v-14.386c0-2.391-6.648-9.614-9.811-9.614z"/>
  </symbol>

  <symbol id="zip-12">
    <path d="M10.999 6h-2.998v-1h2.998v1zm0 1h-2.998v1h2.998v-1zm0-4h-2.998v1h2.998v-1zm0 6h-2.998v1h2.998v-1zm0 2h-2.998v1h2.998v-1zm-1.499 9c-1.624 0-2.818-.922-2.425-2.5l.926-4.5h2.998l.926 4.5c.392 1.576-.799 2.5-2.425 2.5zm1.497-1.94c0-1.341-2.996-1.311-2.996.003 0 1.264 2.996 1.273 2.996-.003zm.365-16.06c4.156 0 2.638 6 2.638 6s6-1.65 6 2.457v11.543h-16v-20h7.362zm.827-2h-10.189v24h20v-14.386c0-2.391-6.648-9.614-9.811-9.614z"/>
  </symbol>

  <symbol id="paperclip-2">
    <path d="M21.586 10.461l-10.05 10.075c-1.95 1.949-5.122 1.949-7.071 0s-1.95-5.122 0-7.072l10.628-10.585c1.17-1.17 3.073-1.17 4.243 0 1.169 1.17 1.17 3.072 0 4.242l-8.507 8.464c-.39.39-1.024.39-1.414 0s-.39-1.024 0-1.414l7.093-7.05-1.415-1.414-7.093 7.049c-1.172 1.172-1.171 3.073 0 4.244s3.071 1.171 4.242 0l8.507-8.464c.977-.977 1.464-2.256 1.464-3.536 0-2.769-2.246-4.999-5-4.999-1.28 0-2.559.488-3.536 1.465l-10.627 10.583c-1.366 1.368-2.05 3.159-2.05 4.951 0 3.863 3.13 7 7 7 1.792 0 3.583-.684 4.95-2.05l10.05-10.075-1.414-1.414z"/>
  </symbol>

</svg>
